<?xml version="1.0" encoding="UTF-8"?>
<!DOCTYPE svg PUBLIC "-//W3C//DTD SVG 1.1//EN" "http://www.w3.org/Graphics/SVG/1.1/DTD/svg11.dtd">
<!-- Creator: CorelDRAW 2018 (64-Bit) -->
<svg xmlns="http://www.w3.org/2000/svg" xml:space="preserve" width="67.7333mm" height="33.1641mm" version="1.1" style="shape-rendering:geometricPrecision; text-rendering:geometricPrecision; image-rendering:optimizeQuality; fill-rule:evenodd; clip-rule:evenodd"
viewBox="0 0 6773.28 3316.39"
 xmlns:xlink="http://www.w3.org/1999/xlink">
 <defs>
  <style type="text/css">
   <![CDATA[
    .fil2 {fill:#C62422}
    .fil3 {fill:#24396C}
    .fil1 {fill:#777775;fill-rule:nonzero}
    .fil0 {fill:#24396C;fill-rule:nonzero}
   ]]>
  </style>
 </defs>
 <g id="Layer_x0020_1">
  <metadata id="CorelCorpID_0Corel-Layer"/>
  <g id="_2619271873424">
   <path class="fil0" d="M1040.6 1939.52l-444.19 904.45c-6.92,13.83 -17.18,24.99 -31.02,33.48 -13.62,8.7 -28.8,12.94 -45.31,12.94 -16.3,0 -31.25,-4.24 -44.87,-12.94 -13.84,-8.49 -24.33,-19.65 -31.69,-33.48l-443.53 -904.45 190.4 0 329.69 675.44 330.8 -675.44 189.72 0zm267.41 937.7l-170.09 0 0 -937.7 170.09 0 0 937.7zm1135.91 -72.54c0,12.05 -2.45,23.44 -6.92,33.93 -4.69,10.49 -10.71,19.64 -18.3,27.23 -7.59,7.59 -16.74,13.62 -27.24,17.85 -10.48,4.47 -21.42,6.7 -33.25,6.7 -10.5,0 -20.99,-2.01 -31.7,-6.03 -10.71,-3.79 -20.31,-10.26 -28.57,-18.97l-621.2 -648.65 0 660.48 -170.08 0 0 -865.16c0,-17.41 4.91,-33.25 14.73,-47.31 9.82,-14.29 22.32,-24.78 37.72,-31.7 16.07,-6.7 32.59,-8.26 49.55,-4.91 17.19,3.12 31.7,11.16 43.98,23.66l621.2 648.2 0 -660.48 170.08 0 0 865.16zm1117.61 72.54l-170.09 0 0 -230.13 -597.76 0 0 230.13 -170.09 0 0 -468.96c0,-68.31 11.84,-131.47 35.27,-188.84 23.66,-57.59 56.25,-107.14 98.21,-148.43 41.75,-41.53 91.3,-73.67 148.44,-96.88 57.14,-22.99 119.42,-34.6 187.05,-34.6l383.25 0c11.61,0 22.77,2.23 33.26,6.48 10.49,4.46 19.64,10.49 27.46,18.3 7.81,7.81 14.06,16.96 18.3,27.45 4.47,10.49 6.7,21.65 6.7,33.49l0 851.98zm-767.84 -400.22l597.76 0 0 -367.63 -298.88 0c-5.36,0 -16.29,0.9 -33.03,2.46 -16.75,1.56 -36.17,5.36 -58.26,11.39 -21.88,6.02 -45.09,15.4 -69.64,28.12 -24.34,12.72 -46.88,30.13 -67.41,52.23 -20.32,22.32 -37.28,50.22 -50.67,83.48 -13.17,33.26 -19.87,73.66 -19.87,121.21l0 68.74zm1858.45 -223.65c0,38.84 -4.92,73.43 -14.73,104.01 -9.83,30.58 -22.77,57.37 -38.85,80.8 -16.07,23.22 -35.04,43.31 -56.47,59.83 -21.65,16.52 -43.97,30.13 -67.18,40.84 -23,10.72 -46.43,18.31 -70.31,23.22 -23.67,4.69 -45.99,7.14 -66.97,7.14l-68.53 0 0 308.03 -171.42 0 0 -308.03 -68.08 0c-20.76,0 -43.3,-2.45 -66.96,-7.14 -23.67,-4.91 -47.32,-12.5 -70.54,-23.22 -23.44,-10.71 -45.75,-24.32 -67.19,-40.84 -21.2,-16.52 -40.17,-36.61 -56.47,-59.83 -16.29,-23.43 -29.46,-50.44 -39.28,-81.24 -9.82,-30.58 -14.73,-65.18 -14.73,-103.57l0 -313.84 170.08 0 0 313.84c0,22.32 3.57,42.18 10.49,59.82 6.92,17.63 16.74,32.81 29.47,45.53 12.5,12.5 27.9,22.33 45.98,29.02 18.08,6.7 38.39,10.27 60.49,10.27l306.69 0c16.07,-2.68 32.81,-6.03 49.78,-10.27 16.96,-4.02 32.36,-11.16 46.43,-21.21 13.83,-10.04 25.44,-24.1 34.59,-41.96 9.16,-17.86 13.84,-41.51 13.84,-71.2l0 -313.84 169.87 0 0 313.84zm1068.72 623.87l-170.09 0 0 -230.13 -597.76 0 0 230.13 -170.09 0 0 -468.96c0,-68.31 11.84,-131.47 35.27,-188.84 23.66,-57.59 56.25,-107.14 98.21,-148.43 41.75,-41.53 91.3,-73.67 148.44,-96.88 57.14,-22.99 119.42,-34.6 187.05,-34.6l383.25 0c11.61,0 22.77,2.23 33.27,6.48 10.48,4.46 19.63,10.49 27.45,18.3 7.81,7.81 14.06,16.96 18.3,27.45 4.47,10.49 6.7,21.65 6.7,33.49l0 851.98zm-767.84 -400.22l597.76 0 0 -367.63 -298.88 0c-5.36,0 -16.29,0.9 -33.03,2.46 -16.75,1.56 -36.17,5.36 -58.26,11.39 -21.88,6.02 -45.09,15.4 -69.64,28.12 -24.34,12.72 -46.88,30.13 -67.41,52.23 -20.32,22.32 -37.28,50.22 -50.67,83.48 -13.17,33.26 -19.87,73.66 -19.87,121.21l0 68.74zm1820.27 400.22l-241.28 0 -382.59 -383.25 -59.82 0 0 -171.21 59.82 0 382.59 -383.25 241.28 0 -481.91 468.75 481.91 468.96zm-683.68 0l-170.09 0 0 -937.7 170.09 0 0 937.7z"/>
   <path class="fil1" d="M1137.92 3313.15l0 -192.87 72.83 0c12.79,0 22.58,0.62 29.36,1.84 9.47,1.57 17.42,4.58 23.84,8.98 6.42,4.44 11.58,10.64 15.49,18.58 3.91,7.95 5.83,16.71 5.83,26.27 0,16.34 -5.2,30.21 -15.67,41.53 -10.41,11.36 -29.31,17.01 -56.61,17.01l-49.48 0 0 78.66 -25.59 0zm25.59 -101.28l49.84 0c16.52,0 28.2,-3.05 35.16,-9.21 6.91,-6.15 10.36,-14.77 10.36,-25.95 0,-8.03 -2.02,-14.95 -6.1,-20.69 -4.09,-5.75 -9.47,-9.57 -16.12,-11.41 -4.31,-1.12 -12.25,-1.7 -23.79,-1.7l-49.35 0 0 68.96zm286.45 101.28l0 -192.87 85.49 0c17.19,0 30.26,1.75 39.19,5.2 8.93,3.46 16.07,9.57 21.42,18.32 5.34,8.76 7.99,18.46 7.99,29.05 0,13.69 -4.45,25.23 -13.29,34.62 -8.85,9.38 -22.49,15.31 -40.99,17.87 6.77,3.23 11.9,6.46 15.39,9.6 7.46,6.83 14.51,15.4 21.11,25.68l33.35 52.53 -31.87 0 -25.5 -40.14c-7.41,-11.62 -13.56,-20.47 -18.37,-26.62 -4.84,-6.15 -9.15,-10.41 -12.97,-12.88 -3.77,-2.43 -7.68,-4.13 -11.63,-5.12 -2.87,-0.59 -7.58,-0.9 -14.18,-0.9l-29.55 0 0 85.66 -25.59 0zm25.59 -107.75l54.78 0c11.67,0 20.74,-1.21 27.29,-3.64 6.56,-2.37 11.54,-6.24 14.91,-11.58 3.41,-5.3 5.12,-11.04 5.12,-17.28 0,-9.12 -3.28,-16.66 -9.88,-22.54 -6.6,-5.88 -17.02,-8.8 -31.25,-8.8l-60.97 0 0 63.84zm304.54 107.75l0 -192.87 25.59 0 0 192.87 -25.59 0zm202.09 0l0 -192.87 26.22 0 101.2 151.39 0 -151.39 24.51 0 0 192.87 -26.22 0 -101.2 -151.39 0 151.39 -24.51 0zm375.65 0l0 -170.24 -63.57 0 0 -22.63 152.74 0 0 22.63 -63.57 0 0 170.24 -25.6 0zm511.2 0l0 -170.24 -63.57 0 0 -22.63 152.74 0 0 22.63 -63.57 0 0 170.24 -25.6 0zm234.69 -93.88c0,-31.96 8.62,-57.01 25.81,-75.11 17.2,-18.09 39.38,-27.11 66.58,-27.11 17.83,0 33.85,4.26 48.18,12.75 14.27,8.48 25.18,20.33 32.68,35.56 7.5,15.17 11.27,32.41 11.27,51.67 0,19.53 -3.95,37.04 -11.85,52.44 -7.9,15.44 -19.09,27.12 -33.54,35.02 -14.5,7.94 -30.13,11.9 -46.87,11.9 -18.19,0 -34.39,-4.41 -48.72,-13.16 -14.27,-8.75 -25.14,-20.7 -32.5,-35.87 -7.36,-15.13 -11.04,-31.16 -11.04,-48.09zm26.39 0.45c0,23.22 6.24,41.49 18.73,54.82 12.48,13.34 28.14,20.03 47,20.03 19.22,0 34.98,-6.74 47.41,-20.21 12.39,-13.46 18.59,-32.59 18.59,-57.37 0,-15.68 -2.65,-29.37 -7.95,-41.04 -5.29,-11.67 -13.06,-20.74 -23.25,-27.16 -10.24,-6.42 -21.69,-9.65 -34.4,-9.65 -18.04,0 -33.58,6.19 -46.59,18.58 -13.03,12.39 -19.54,33.05 -19.54,62zm547.3 93.43l0 -192.87 72.82 0c12.8,0 22.58,0.62 29.37,1.84 9.47,1.57 17.41,4.58 23.84,8.98 6.41,4.44 11.58,10.64 15.48,18.58 3.91,7.95 5.84,16.71 5.84,26.27 0,16.34 -5.21,30.21 -15.67,41.53 -10.42,11.36 -29.32,17.01 -56.61,17.01l-49.48 0 0 78.66 -25.59 0zm25.59 -101.28l49.83 0c16.53,0 28.2,-3.05 35.16,-9.21 6.91,-6.15 10.37,-14.77 10.37,-25.95 0,-8.03 -2.02,-14.95 -6.11,-20.69 -4.08,-5.75 -9.47,-9.57 -16.11,-11.41 -4.31,-1.12 -12.26,-1.7 -23.8,-1.7l-49.34 0 0 68.96zm286.45 101.28l0 -192.87 85.48 0c17.2,0 30.26,1.75 39.2,5.2 8.93,3.46 16.07,9.57 21.41,18.32 5.34,8.76 7.99,18.46 7.99,29.05 0,13.69 -4.44,25.23 -13.29,34.62 -8.84,9.38 -22.49,15.31 -40.99,17.87 6.78,3.23 11.9,6.46 15.4,9.6 7.46,6.83 14.5,15.4 21.1,25.68l33.36 52.53 -31.87 0 -25.5 -40.14c-7.41,-11.62 -13.56,-20.47 -18.37,-26.62 -4.85,-6.15 -9.16,-10.41 -12.97,-12.88 -3.77,-2.43 -7.68,-4.13 -11.63,-5.12 -2.87,-0.59 -7.59,-0.9 -14.19,-0.9l-29.54 0 0 85.66 -25.59 0zm25.59 -107.75l54.77 0c11.68,0 20.74,-1.21 27.3,-3.64 6.55,-2.37 11.54,-6.24 14.91,-11.58 3.41,-5.3 5.11,-11.04 5.11,-17.28 0,-9.12 -3.27,-16.66 -9.87,-22.54 -6.6,-5.88 -17.02,-8.8 -31.25,-8.8l-60.97 0 0 63.84zm292.42 13.87c0,-31.96 8.62,-57.01 25.81,-75.11 17.2,-18.09 39.38,-27.11 66.59,-27.11 17.82,0 33.84,4.26 48.17,12.75 14.27,8.48 25.19,20.33 32.68,35.56 7.5,15.17 11.27,32.41 11.27,51.67 0,19.53 -3.95,37.04 -11.85,52.44 -7.9,15.44 -19.08,27.12 -33.54,35.02 -14.5,7.94 -30.13,11.9 -46.87,11.9 -18.18,0 -34.39,-4.41 -48.71,-13.16 -14.28,-8.75 -25.15,-20.7 -32.51,-35.87 -7.36,-15.13 -11.04,-31.16 -11.04,-48.09zm26.4 0.45c0,23.22 6.24,41.49 18.72,54.82 12.48,13.34 28.15,20.03 47,20.03 19.22,0 34.98,-6.74 47.42,-20.21 12.39,-13.46 18.58,-32.59 18.58,-57.37 0,-15.68 -2.65,-29.37 -7.94,-41.04 -5.3,-11.67 -13.07,-20.74 -23.26,-27.16 -10.24,-6.42 -21.69,-9.65 -34.39,-9.65 -18.05,0 -33.59,6.19 -46.6,18.58 -13.02,12.39 -19.53,33.05 -19.53,62zm413 17.74l0 -22.63 81.63 0 0 71.48c-12.53,9.96 -25.46,17.5 -38.79,22.53 -13.34,5.03 -27.03,7.55 -41.04,7.55 -18.95,0 -36.14,-4.05 -51.63,-12.17 -15.44,-8.08 -27.16,-19.85 -35.02,-35.15 -7.9,-15.36 -11.85,-32.51 -11.85,-51.41 0,-18.77 3.91,-36.28 11.76,-52.58 7.86,-16.25 19.13,-28.32 33.85,-36.18 14.73,-7.9 31.7,-11.85 50.92,-11.85 13.91,0 26.53,2.24 37.8,6.77 11.27,4.54 20.11,10.83 26.49,18.86 6.42,8.08 11.27,18.63 14.59,31.61l-23.03 6.29c-2.92,-9.79 -6.51,-17.52 -10.78,-23.17 -4.31,-5.61 -10.42,-10.1 -18.4,-13.47 -7.95,-3.37 -16.8,-5.08 -26.54,-5.08 -11.63,0 -21.69,1.8 -30.22,5.35 -8.48,3.55 -15.31,8.21 -20.56,14.05 -5.21,5.79 -9.25,12.17 -12.12,19.08 -4.89,11.99 -7.36,24.92 -7.36,38.88 0,17.24 2.96,31.65 8.84,43.28 5.93,11.59 14.55,20.21 25.82,25.82 11.31,5.61 23.3,8.44 36,8.44 11.05,0 21.82,-2.16 32.33,-6.42 10.51,-4.31 18.45,-8.85 23.88,-13.74l0 -36.14 -56.57 0zm251.66 75.69l0 -192.87 85.48 0c17.19,0 30.26,1.75 39.19,5.2 8.94,3.46 16.07,9.57 21.42,18.32 5.34,8.76 7.99,18.46 7.99,29.05 0,13.69 -4.44,25.23 -13.29,34.62 -8.84,9.38 -22.49,15.31 -40.99,17.87 6.78,3.23 11.9,6.46 15.4,9.6 7.45,6.83 14.5,15.4 21.1,25.68l33.36 52.53 -31.88 0 -25.5 -40.14c-7.4,-11.62 -13.56,-20.47 -18.36,-26.62 -4.85,-6.15 -9.16,-10.41 -12.98,-12.88 -3.77,-2.43 -7.67,-4.13 -11.62,-5.12 -2.88,-0.59 -7.59,-0.9 -14.19,-0.9l-29.54 0 0 85.66 -25.59 0zm25.59 -107.75l54.77 0c11.67,0 20.74,-1.21 27.3,-3.64 6.55,-2.37 11.54,-6.24 14.9,-11.58 3.41,-5.3 5.12,-11.04 5.12,-17.28 0,-9.12 -3.28,-16.66 -9.88,-22.54 -6.6,-5.88 -17.01,-8.8 -31.24,-8.8l-60.97 0 0 63.84zm300.76 107.75l0 -192.87 139.28 0 0 22.63 -113.68 0 0 59.26 106.4 0 0 22.63 -106.4 0 0 65.73 118.25 0 0 22.62 -143.85 0zm302.61 -61.95l23.98 -2.16c1.12,9.7 3.77,17.65 7.94,23.89 4.18,6.19 10.65,11.22 19.4,15.08 8.76,3.82 18.63,5.75 29.59,5.75 9.74,0 18.32,-1.44 25.77,-4.36 7.45,-2.92 12.97,-6.91 16.61,-11.98 3.64,-5.08 5.48,-10.6 5.48,-16.52 0,-6.02 -1.75,-11.28 -5.25,-15.81 -3.51,-4.49 -9.3,-8.26 -17.38,-11.36 -5.16,-1.97 -16.61,-5.12 -34.35,-9.38 -17.73,-4.27 -30.12,-8.26 -37.21,-12.04 -9.21,-4.84 -16.03,-10.86 -20.52,-18 -4.54,-7.14 -6.78,-15.17 -6.78,-24.02 0,-9.78 2.78,-18.9 8.3,-27.34 5.53,-8.49 13.56,-14.9 24.2,-19.3 10.6,-4.41 22.41,-6.6 35.38,-6.6 14.28,0 26.89,2.28 37.81,6.91 10.9,4.58 19.3,11.36 25.18,20.34 5.88,8.93 9.02,19.08 9.47,30.39l-24.51 1.89c-1.3,-12.17 -5.74,-21.37 -13.33,-27.57 -7.59,-6.24 -18.82,-9.34 -33.63,-9.34 -15.45,0 -26.71,2.83 -33.76,8.49 -7.05,5.66 -10.6,12.48 -10.6,20.47 0,6.92 2.52,12.62 7.5,17.11 4.94,4.44 17.73,9.07 38.48,13.74 20.74,4.71 34.97,8.79 42.69,12.3 11.18,5.16 19.49,11.67 24.83,19.62 5.34,7.9 7.99,17.01 7.99,27.34 0,10.28 -2.92,19.89 -8.8,28.96 -5.88,9.06 -14.28,16.11 -25.28,21.14 -11,5.03 -23.34,7.55 -37.12,7.55 -17.42,0 -32.02,-2.56 -43.78,-7.64 -11.81,-5.07 -21.01,-12.7 -27.7,-22.94 -6.73,-10.19 -10.24,-21.73 -10.6,-34.61zm311.5 0l23.98 -2.16c1.12,9.7 3.77,17.65 7.94,23.89 4.18,6.19 10.64,11.22 19.4,15.08 8.76,3.82 18.63,5.75 29.59,5.75 9.74,0 18.32,-1.44 25.77,-4.36 7.45,-2.92 12.97,-6.91 16.61,-11.98 3.64,-5.08 5.48,-10.6 5.48,-16.52 0,-6.02 -1.75,-11.28 -5.25,-15.81 -3.51,-4.49 -9.3,-8.26 -17.38,-11.36 -5.16,-1.97 -16.61,-5.12 -34.35,-9.38 -17.73,-4.27 -30.12,-8.26 -37.21,-12.04 -9.21,-4.84 -16.03,-10.86 -20.52,-18 -4.54,-7.14 -6.78,-15.17 -6.78,-24.02 0,-9.78 2.78,-18.9 8.3,-27.34 5.53,-8.49 13.56,-14.9 24.2,-19.3 10.6,-4.41 22.41,-6.6 35.38,-6.6 14.28,0 26.89,2.28 37.8,6.91 10.91,4.58 19.31,11.36 25.19,20.34 5.88,8.93 9.02,19.08 9.47,30.39l-24.51 1.89c-1.3,-12.17 -5.74,-21.37 -13.33,-27.57 -7.59,-6.24 -18.82,-9.34 -33.63,-9.34 -15.45,0 -26.71,2.83 -33.76,8.49 -7.05,5.66 -10.6,12.48 -10.6,20.47 0,6.92 2.51,12.62 7.5,17.11 4.94,4.44 17.73,9.07 38.47,13.74 20.75,4.71 34.98,8.79 42.7,12.3 11.18,5.16 19.49,11.67 24.83,19.62 5.34,7.9 7.99,17.01 7.99,27.34 0,10.28 -2.92,19.89 -8.8,28.96 -5.88,9.06 -14.28,16.11 -25.28,21.14 -11,5.03 -23.34,7.55 -37.12,7.55 -17.43,0 -32.02,-2.56 -43.78,-7.64 -11.81,-5.07 -21.01,-12.7 -27.7,-22.94 -6.73,-10.19 -10.24,-21.73 -10.6,-34.61z"/>
   <g>
    <polygon class="fil2" points="3845.34,888.86 3872.59,841.67 4358.53,0 3386.65,0 3332.16,0 3498.99,288.98 3654.5,288.98 3858.68,288.98 3756.59,465.8 3678.83,600.47 "/>
    <polygon class="fil3" points="3615.99,1286.1 3782.8,997.18 3207.08,0 2873.47,0 "/>
    <polygon class="fil2" points="3386.65,1683.35 3553.45,1394.42 2748.39,0 2414.76,0 2900.71,841.67 "/>
   </g>
  </g>
 </g>
</svg>
